<svg fillx="#ffffff" version="1.1" id="Layer_1" xmlns="http://www.w3.org/2000/svg"
    xmlns:xlink="http://www.w3.org/1999/xlink" viewBox="0 0 512 512" xml:space="preserve"
    strokex="#ffffff"><g id="SVGRepo_bgCarrier" stroke-width="0"></g><g id="SVGRepo_tracerCarrier" stroke-linecap="round" stroke-linejoin="round"></g><g id="SVGRepo_iconCarrier"> <g> <g> <path d="M437.503,77.395c-1.554-29.808-26.292-53.581-56.48-53.581c-16.527,0-32.198,7.42-42.79,19.844 c-8.715-5.216-18.465-7.937-28.652-7.937c-0.372,0-0.738,0.006-1.103,0.017C300.005,14.355,279.412,0,256,0 c-21.133,0-39.982,11.533-49.769,29.911c-1.288-0.096-2.561-0.144-3.813-0.144c-8.655,0-17.039,1.935-24.639,5.647 C167.132,24.306,152.37,17.86,136.93,17.86c-31.186,0-56.558,25.373-56.558,56.558v2.977H50.605v77.395h17.86v127.998h17.86 V154.791h65.488v89.302h-35.721V392.93h35.721v53.581H86.326V306.602h-17.86V512h375.07V154.791h17.86V77.395H437.503z M133.954,375.07V261.953h244.093V375.07H133.954z M169.674,244.093v-89.302h77.395v89.302H169.674z M264.93,244.093v-89.302 h77.395v89.302H264.93z M342.326,392.93v53.581H264.93V392.93H342.326z M247.07,392.93v53.581h-77.395V392.93H247.07z M425.674,494.14H86.326v-29.767h339.349V494.14z M425.674,446.512h-65.488V392.93h35.721V244.093h-35.721v-89.302h65.488V446.512 z M443.535,136.93H68.465V95.256h133.953v-17.86H98.231v-2.977h0.001c0-21.338,17.359-38.698,38.698-38.698 c12.599,0,24.1,5.975,31.555,16.391l5.1,7.125l7.22-4.964c6.324-4.347,13.798-6.645,21.614-6.645c2.337,0,4.833,0.262,7.417,0.779 l7.386,1.477l2.702-7.031C225.755,27.669,239.916,17.86,256,17.86c17.808,0,33.24,12.186,37.527,29.635l1.943,7.909l8.054-1.207 c2.245-0.337,4.25-0.616,6.057-0.616c9.091,0,17.724,3.226,24.965,9.329l8.079,6.808l5.368-9.101 c6.892-11.684,19.549-18.944,33.03-18.944c20.336,0,37.045,15.77,38.571,35.721H226.228v17.86h217.307V136.93z"></path> </g> </g> <g> <g> <rect x="101.209" y="172.651" width="35.721" height="17.86"></rect> </g> </g> <g> <g> <rect x="190.512" y="172.651" width="35.721" height="17.86"></rect> </g> </g> <g> <g> <rect x="285.767" y="172.651" width="35.721" height="17.86"></rect> </g> </g> <g> <g> <rect x="375.07" y="172.651" width="35.721" height="17.86"></rect> </g> </g> <g> <g> <rect x="184.558" y="291.721" width="142.884" height="17.86"></rect> </g> </g> <g> <g> <rect x="184.558" y="327.442" width="29.767" height="17.86"></rect> </g> </g> <g> <g> <rect x="232.186" y="327.442" width="29.767" height="17.86"></rect> </g> </g> <g> <g> <rect x="297.674" y="327.442" width="29.767" height="17.86"></rect> </g> </g> </g></svg>